<?xml version="1.0" encoding="UTF-8"?>
<mxfile host="app.diagrams.net" modified="2023-12-18T03:02:57.387Z" agent="Mozilla/5.0 (Windows NT 10.0; Win64; x64) AppleWebKit/537.36 (KHTML, like Gecko) Chrome/120.0.0.0 Safari/537.36 Edg/120.0.0.0" etag="H5h9VisXVZGg5-2jSyqk" version="22.1.11" type="google">
  <diagram id="R2lEEEUBdFMjLlhIrx00" name="Page-1">
    <mxGraphModel dx="1626" dy="785" grid="1" gridSize="10" guides="1" tooltips="1" connect="1" arrows="1" fold="1" page="1" pageScale="1" pageWidth="850" pageHeight="1100" math="0" shadow="0" extFonts="Permanent Marker^https://fonts.googleapis.com/css?family=Permanent+Marker">
      <root>
        <mxCell id="0" />
        <mxCell id="1" parent="0" />
        <mxCell id="LHrBrEcsu_uyXa2rsl70-1" value="" style="rounded=0;whiteSpace=wrap;html=1;" parent="1" vertex="1">
          <mxGeometry x="720" y="585" width="1020" height="420" as="geometry" />
        </mxCell>
        <mxCell id="LHrBrEcsu_uyXa2rsl70-2" value="" style="rounded=0;whiteSpace=wrap;html=1;" parent="1" vertex="1">
          <mxGeometry x="220" y="585" width="420" height="420" as="geometry" />
        </mxCell>
        <mxCell id="LHrBrEcsu_uyXa2rsl70-3" value="" style="rounded=0;whiteSpace=wrap;html=1;" parent="1" vertex="1">
          <mxGeometry x="890" y="660" width="370" height="240" as="geometry" />
        </mxCell>
        <mxCell id="LHrBrEcsu_uyXa2rsl70-4" value="" style="group" parent="1" connectable="0" vertex="1">
          <mxGeometry y="750" width="60" height="105" as="geometry" />
        </mxCell>
        <mxCell id="LHrBrEcsu_uyXa2rsl70-5" value="" style="shape=actor;whiteSpace=wrap;html=1;" parent="LHrBrEcsu_uyXa2rsl70-4" vertex="1">
          <mxGeometry x="10" width="40" height="60" as="geometry" />
        </mxCell>
        <mxCell id="LHrBrEcsu_uyXa2rsl70-6" value="User" style="text;html=1;strokeColor=none;fillColor=none;align=center;verticalAlign=middle;whiteSpace=wrap;rounded=0;" parent="LHrBrEcsu_uyXa2rsl70-4" vertex="1">
          <mxGeometry y="75" width="60" height="30" as="geometry" />
        </mxCell>
        <mxCell id="LHrBrEcsu_uyXa2rsl70-7" value="Database" style="shape=cylinder3;whiteSpace=wrap;html=1;boundedLbl=1;backgroundOutline=1;size=15;" parent="1" vertex="1">
          <mxGeometry x="1685" y="760" width="60" height="80" as="geometry" />
        </mxCell>
        <mxCell id="LHrBrEcsu_uyXa2rsl70-8" value="&lt;font style=&quot;font-size: 14px;&quot;&gt;CONTROLER&lt;/font&gt;" style="whiteSpace=wrap;html=1;align=center;" parent="1" vertex="1">
          <mxGeometry x="1020" y="660" width="100" height="40" as="geometry" />
        </mxCell>
        <mxCell id="LHrBrEcsu_uyXa2rsl70-12" style="edgeStyle=orthogonalEdgeStyle;rounded=0;orthogonalLoop=1;jettySize=auto;html=1;entryX=0.003;entryY=0.309;entryDx=0;entryDy=0;entryPerimeter=0;" parent="1" source="LHrBrEcsu_uyXa2rsl70-21" target="LHrBrEcsu_uyXa2rsl70-25" edge="1">
          <mxGeometry relative="1" as="geometry">
            <mxPoint x="795.4300000000003" y="802.46" as="sourcePoint" />
          </mxGeometry>
        </mxCell>
        <mxCell id="LHrBrEcsu_uyXa2rsl70-13" style="edgeStyle=orthogonalEdgeStyle;rounded=0;orthogonalLoop=1;jettySize=auto;html=1;entryX=1;entryY=0.326;entryDx=0;entryDy=0;entryPerimeter=0;" parent="1" source="LHrBrEcsu_uyXa2rsl70-27" target="LHrBrEcsu_uyXa2rsl70-25" edge="1">
          <mxGeometry relative="1" as="geometry" />
        </mxCell>
        <mxCell id="LHrBrEcsu_uyXa2rsl70-14" style="edgeStyle=orthogonalEdgeStyle;rounded=0;orthogonalLoop=1;jettySize=auto;html=1;exitX=1;exitY=0.5;exitDx=0;exitDy=0;entryX=0;entryY=0.678;entryDx=0;entryDy=0;entryPerimeter=0;" parent="1" source="LHrBrEcsu_uyXa2rsl70-25" target="LHrBrEcsu_uyXa2rsl70-27" edge="1">
          <mxGeometry relative="1" as="geometry" />
        </mxCell>
        <mxCell id="LHrBrEcsu_uyXa2rsl70-15" style="edgeStyle=orthogonalEdgeStyle;rounded=0;orthogonalLoop=1;jettySize=auto;html=1;entryX=0.008;entryY=0.438;entryDx=0;entryDy=0;entryPerimeter=0;" parent="1" source="LHrBrEcsu_uyXa2rsl70-27" target="LHrBrEcsu_uyXa2rsl70-7" edge="1">
          <mxGeometry relative="1" as="geometry">
            <mxPoint x="1710" y="790" as="targetPoint" />
          </mxGeometry>
        </mxCell>
        <mxCell id="LHrBrEcsu_uyXa2rsl70-16" style="edgeStyle=orthogonalEdgeStyle;rounded=0;orthogonalLoop=1;jettySize=auto;html=1;entryX=0.993;entryY=0.627;entryDx=0;entryDy=0;entryPerimeter=0;exitX=-0.017;exitY=0.613;exitDx=0;exitDy=0;exitPerimeter=0;" parent="1" source="LHrBrEcsu_uyXa2rsl70-7" target="LHrBrEcsu_uyXa2rsl70-27" edge="1">
          <mxGeometry relative="1" as="geometry" />
        </mxCell>
        <mxCell id="LHrBrEcsu_uyXa2rsl70-17" style="edgeStyle=orthogonalEdgeStyle;rounded=0;orthogonalLoop=1;jettySize=auto;html=1;entryX=-0.005;entryY=0.358;entryDx=0;entryDy=0;entryPerimeter=0;" parent="1" source="LHrBrEcsu_uyXa2rsl70-5" target="LHrBrEcsu_uyXa2rsl70-21" edge="1">
          <mxGeometry relative="1" as="geometry" />
        </mxCell>
        <mxCell id="LHrBrEcsu_uyXa2rsl70-18" style="edgeStyle=orthogonalEdgeStyle;rounded=0;orthogonalLoop=1;jettySize=auto;html=1;entryX=1;entryY=0.75;entryDx=0;entryDy=0;" parent="1" source="LHrBrEcsu_uyXa2rsl70-21" target="LHrBrEcsu_uyXa2rsl70-5" edge="1">
          <mxGeometry relative="1" as="geometry" />
        </mxCell>
        <mxCell id="LHrBrEcsu_uyXa2rsl70-19" value="&lt;span style=&quot;font-size: 14px;&quot;&gt;CLIENT&lt;/span&gt;" style="whiteSpace=wrap;html=1;align=center;" parent="1" vertex="1">
          <mxGeometry x="370" y="585" width="100" height="40" as="geometry" />
        </mxCell>
        <mxCell id="LHrBrEcsu_uyXa2rsl70-20" value="&lt;span style=&quot;font-size: 14px;&quot;&gt;SERVER&lt;/span&gt;" style="whiteSpace=wrap;html=1;align=center;" parent="1" vertex="1">
          <mxGeometry x="1225" y="579" width="100" height="40" as="geometry" />
        </mxCell>
        <mxCell id="LHrBrEcsu_uyXa2rsl70-21" value="" style="rounded=0;whiteSpace=wrap;html=1;" parent="1" vertex="1">
          <mxGeometry x="312.5" y="740" width="215" height="110" as="geometry" />
        </mxCell>
        <mxCell id="LHrBrEcsu_uyXa2rsl70-22" value="&lt;font style=&quot;font-size: 14px;&quot;&gt;VIEW&lt;/font&gt;" style="whiteSpace=wrap;html=1;align=center;" parent="1" vertex="1">
          <mxGeometry x="370.5" y="740" width="100" height="40" as="geometry" />
        </mxCell>
        <mxCell id="LHrBrEcsu_uyXa2rsl70-25" value="" style="rounded=0;whiteSpace=wrap;html=1;" parent="1" vertex="1">
          <mxGeometry x="962.5" y="760" width="215" height="110" as="geometry" />
        </mxCell>
        <mxCell id="LHrBrEcsu_uyXa2rsl70-26" value="&lt;font style=&quot;font-size: 14px;&quot;&gt;REST API&lt;/font&gt;" style="whiteSpace=wrap;html=1;align=center;" parent="1" vertex="1">
          <mxGeometry x="1020" y="760" width="100" height="40" as="geometry" />
        </mxCell>
        <mxCell id="LHrBrEcsu_uyXa2rsl70-27" value="" style="rounded=0;whiteSpace=wrap;html=1;" parent="1" vertex="1">
          <mxGeometry x="1346" y="740" width="215" height="110" as="geometry" />
        </mxCell>
        <mxCell id="LHrBrEcsu_uyXa2rsl70-28" value="&lt;font style=&quot;font-size: 14px;&quot;&gt;DB MODEL&lt;/font&gt;" style="whiteSpace=wrap;html=1;align=center;" parent="1" vertex="1">
          <mxGeometry x="1403.5" y="740" width="100" height="40" as="geometry" />
        </mxCell>
        <mxCell id="LHrBrEcsu_uyXa2rsl70-34" value="" style="rounded=0;whiteSpace=wrap;html=1;" parent="1" vertex="1">
          <mxGeometry x="945" y="1120" width="250" height="110" as="geometry" />
        </mxCell>
        <mxCell id="LHrBrEcsu_uyXa2rsl70-35" value="&lt;span style=&quot;font-size: 14px;&quot;&gt;ROBOFLOW&lt;/span&gt;" style="whiteSpace=wrap;html=1;align=center;" parent="1" vertex="1">
          <mxGeometry x="1010" y="1120" width="120" height="40" as="geometry" />
        </mxCell>
        <mxCell id="LHrBrEcsu_uyXa2rsl70-36" value="" style="rounded=0;whiteSpace=wrap;html=1;" parent="1" vertex="1">
          <mxGeometry x="939" y="281" width="250" height="110" as="geometry" />
        </mxCell>
        <mxCell id="LHrBrEcsu_uyXa2rsl70-37" value="&lt;span style=&quot;font-size: 14px;&quot;&gt;HUGGINGFACE&lt;/span&gt;" style="whiteSpace=wrap;html=1;align=center;" parent="1" vertex="1">
          <mxGeometry x="1002.5" y="282" width="125" height="40" as="geometry" />
        </mxCell>
        <mxCell id="LHrBrEcsu_uyXa2rsl70-38" style="edgeStyle=orthogonalEdgeStyle;rounded=0;orthogonalLoop=1;jettySize=auto;html=1;entryX=0.997;entryY=0.611;entryDx=0;entryDy=0;exitX=0.012;exitY=0.433;exitDx=0;exitDy=0;exitPerimeter=0;entryPerimeter=0;" parent="1" source="LHrBrEcsu_uyXa2rsl70-25" target="LHrBrEcsu_uyXa2rsl70-21" edge="1">
          <mxGeometry relative="1" as="geometry">
            <mxPoint x="805.4300000000003" y="812.46" as="sourcePoint" />
            <mxPoint x="973" y="812" as="targetPoint" />
          </mxGeometry>
        </mxCell>
        <mxCell id="LHrBrEcsu_uyXa2rsl70-39" style="edgeStyle=orthogonalEdgeStyle;rounded=0;orthogonalLoop=1;jettySize=auto;html=1;entryX=0.434;entryY=0.999;entryDx=0;entryDy=0;entryPerimeter=0;exitX=0.424;exitY=0;exitDx=0;exitDy=0;exitPerimeter=0;" parent="1" source="LHrBrEcsu_uyXa2rsl70-34" target="LHrBrEcsu_uyXa2rsl70-3" edge="1">
          <mxGeometry relative="1" as="geometry">
            <mxPoint x="1051" y="1130" as="sourcePoint" />
            <mxPoint x="1040" y="870" as="targetPoint" />
            <Array as="points">
              <mxPoint x="1051" y="1000" />
              <mxPoint x="1051" y="1000" />
            </Array>
          </mxGeometry>
        </mxCell>
        <mxCell id="LHrBrEcsu_uyXa2rsl70-40" style="edgeStyle=orthogonalEdgeStyle;rounded=0;orthogonalLoop=1;jettySize=auto;html=1;entryX=0.548;entryY=-0.004;entryDx=0;entryDy=0;entryPerimeter=0;exitX=0.519;exitY=1.002;exitDx=0;exitDy=0;exitPerimeter=0;" parent="1" source="LHrBrEcsu_uyXa2rsl70-3" target="LHrBrEcsu_uyXa2rsl70-34" edge="1">
          <mxGeometry relative="1" as="geometry">
            <mxPoint x="1084" y="900" as="sourcePoint" />
            <mxPoint x="1050" y="880" as="targetPoint" />
          </mxGeometry>
        </mxCell>
        <mxCell id="LHrBrEcsu_uyXa2rsl70-41" style="edgeStyle=orthogonalEdgeStyle;rounded=0;orthogonalLoop=1;jettySize=auto;html=1;" parent="1" edge="1">
          <mxGeometry relative="1" as="geometry">
            <mxPoint x="1053" y="660" as="sourcePoint" />
            <mxPoint x="1053" y="390" as="targetPoint" />
            <Array as="points">
              <mxPoint x="1054" y="660" />
              <mxPoint x="1053" y="660" />
            </Array>
          </mxGeometry>
        </mxCell>
        <mxCell id="LHrBrEcsu_uyXa2rsl70-42" style="edgeStyle=orthogonalEdgeStyle;rounded=0;orthogonalLoop=1;jettySize=auto;html=1;exitX=0.598;exitY=1.01;exitDx=0;exitDy=0;exitPerimeter=0;" parent="1" source="LHrBrEcsu_uyXa2rsl70-36" edge="1">
          <mxGeometry relative="1" as="geometry">
            <mxPoint x="1086.14" y="341" as="sourcePoint" />
            <mxPoint x="1088" y="660" as="targetPoint" />
          </mxGeometry>
        </mxCell>
        <mxCell id="pAQS7VK8EqBJrnwTSMMB-1" value="response&lt;br&gt;processed image data" style="text;html=1;align=center;verticalAlign=middle;resizable=0;points=[];autosize=1;strokeColor=none;fillColor=none;" parent="1" vertex="1">
          <mxGeometry x="910" y="1043" width="140" height="40" as="geometry" />
        </mxCell>
        <mxCell id="pAQS7VK8EqBJrnwTSMMB-2" value="image data" style="text;html=1;align=center;verticalAlign=middle;resizable=0;points=[];autosize=1;strokeColor=none;fillColor=none;" parent="1" vertex="1">
          <mxGeometry x="1080" y="1048" width="80" height="30" as="geometry" />
        </mxCell>
        <mxCell id="LHrBrEcsu_uyXa2rsl70-43" value="send prompt text" style="text;html=1;align=center;verticalAlign=middle;resizable=0;points=[];autosize=1;strokeColor=none;fillColor=none;" parent="1" vertex="1">
          <mxGeometry x="925" y="480" width="110" height="30" as="geometry" />
        </mxCell>
        <mxCell id="LHrBrEcsu_uyXa2rsl70-44" value="response image" style="text;html=1;align=center;verticalAlign=middle;resizable=0;points=[];autosize=1;strokeColor=none;fillColor=none;" parent="1" vertex="1">
          <mxGeometry x="1095" y="485" width="110" height="30" as="geometry" />
        </mxCell>
        <mxCell id="LHrBrEcsu_uyXa2rsl70-45" value="Send prompts data" style="text;html=1;align=center;verticalAlign=middle;resizable=0;points=[];autosize=1;strokeColor=none;fillColor=none;" parent="1" vertex="1">
          <mxGeometry x="1563" y="765" width="120" height="30" as="geometry" />
        </mxCell>
        <mxCell id="LHrBrEcsu_uyXa2rsl70-46" value="Return link item, price,..." style="text;html=1;align=center;verticalAlign=middle;resizable=0;points=[];autosize=1;strokeColor=none;fillColor=none;" parent="1" vertex="1">
          <mxGeometry x="1553" y="810" width="150" height="30" as="geometry" />
        </mxCell>
        <mxCell id="LHrBrEcsu_uyXa2rsl70-47" value="Send prompt of user" style="text;html=1;align=center;verticalAlign=middle;resizable=0;points=[];autosize=1;strokeColor=none;fillColor=none;" parent="1" vertex="1">
          <mxGeometry x="75" y="745" width="130" height="30" as="geometry" />
        </mxCell>
        <mxCell id="LHrBrEcsu_uyXa2rsl70-48" value="Show Image and List Item" style="text;html=1;align=center;verticalAlign=middle;resizable=0;points=[];autosize=1;strokeColor=none;fillColor=none;" parent="1" vertex="1">
          <mxGeometry x="55" y="795" width="160" height="30" as="geometry" />
        </mxCell>
        <mxCell id="pAQS7VK8EqBJrnwTSMMB-5" value="receive prompt" style="text;html=1;align=center;verticalAlign=middle;resizable=0;points=[];autosize=1;strokeColor=none;fillColor=none;" parent="1" vertex="1">
          <mxGeometry x="650" y="758" width="100" height="30" as="geometry" />
        </mxCell>
        <mxCell id="pAQS7VK8EqBJrnwTSMMB-8" value="send image, price" style="text;html=1;align=center;verticalAlign=middle;resizable=0;points=[];autosize=1;strokeColor=none;fillColor=none;" parent="1" vertex="1">
          <mxGeometry x="640" y="810" width="120" height="30" as="geometry" />
        </mxCell>
      </root>
    </mxGraphModel>
  </diagram>
</mxfile>
